<svg xmlns="http://www.w3.org/2000/svg" fill="none" viewBox="0 0 1152 64" height="64" width="1152">
<g clip-path="url(#clip0_2965_13370)">
<path fill="black" d="M20.3169 48.0145C16.9813 55.0269 16.9813 57.8318 27.8221 57.8318V61.1674H0V57.8318C8.75599 57.8318 10.3101 55.5575 14.707 45.9297L36.0474 0.595703H39.1935L60.3822 45.9297C64.7412 55.368 66.5228 57.8318 74.369 57.8318V61.1674H40.5959V57.8318C50.5649 57.8318 51.6262 55.0269 48.2906 48.0145L45.6752 42.253H22.9324L20.3169 48.0145ZM34.3038 18.2593L25.5478 36.9842H43.0597L34.3038 18.2593Z"></path>
<path fill="black" d="M144.871 20.7232V63.2523H141.194L100.409 19.8514V43.1249C100.409 55.5577 102.001 57.8319 111.78 57.8319V61.1676H83.6172V57.8319C93.3966 57.8319 94.9886 55.5577 94.9886 43.1249V20.7232C94.9886 8.29049 93.3966 6.20573 83.6172 6.20573V2.87012H100.94L139.451 43.6556V20.7232C139.451 8.29049 137.859 6.20573 128.079 6.20573V2.87012H156.243V6.20573C146.425 6.20573 144.871 8.29049 144.871 20.7232Z"></path>
<path fill="black" d="M170.078 31.905C170.078 14.7721 184.937 0.595703 203.321 0.595703C210.143 0.595703 217.686 3.93132 222.045 8.82102C222.917 7.41855 223.637 4.95474 224.32 2.86999H227.655V26.8258H224.168C221.363 13.8624 214.01 6.01608 203.358 6.01608C187.628 6.01608 183.421 20.7231 183.421 31.905C183.421 43.0869 187.628 57.7939 203.358 57.7939C212.304 57.7939 219.62 54.6478 219.62 46.612C219.62 40.661 217.004 38.3867 208.589 38.3867V35.0511H241.642V38.3867C231.863 38.3867 230.271 40.4715 230.271 52.9042V58.1351C222.728 58.1351 210.674 63.4038 203.321 63.4038C184.937 63.4038 170.078 49.2274 170.078 31.905Z"></path>
<path fill="black" d="M304.828 19.3206H302.023L301.151 15.985C299.559 10.2234 297.664 8.10079 285.231 8.10079H275.604V27.6975C289.249 27.6975 290.311 26.4846 290.311 17.3874H293.646V43.4659H290.311C290.311 34.3687 289.249 33.1558 275.604 33.1558V41.1916C275.604 53.6243 277.196 55.7091 286.293 55.7091H288.757C301.189 55.7091 303.085 53.6243 304.677 47.8249L305.548 44.6788H308.164L307.102 61.1295H252.141V57.7939C261.92 57.7939 263.512 55.5196 263.512 43.0868V20.6851C263.512 8.2524 261.92 6.16765 252.141 6.16765V2.83203H303.577L304.79 19.2827L304.828 19.3206Z"></path>
<path fill="black" d="M357.67 55.7091H363.811C376.395 55.7091 378.328 53.6243 379.731 47.8249L380.602 44.6788H383.407L382.194 61.1295H323.594V57.7939C333.373 57.7939 334.965 55.5196 334.965 43.0868V20.6851C334.965 8.2524 333.373 6.16765 323.594 6.16765V2.83203H358.428V6.16765C348.611 6.16765 347.057 8.2524 347.057 20.6851V41.1537C347.057 53.5864 348.649 55.6712 357.746 55.6712L357.67 55.7091Z"></path>
<path fill="black" d="M390.758 61.1295V57.7939C400.537 57.7939 402.129 55.5196 402.129 43.0868V20.6851C402.129 8.2524 400.537 6.16765 390.758 6.16765V2.83203H425.592V6.16765C415.775 6.16765 414.221 8.2524 414.221 20.6851V43.0868C414.221 55.5196 415.813 57.7939 425.592 57.7939V61.1295H390.758Z"></path>
<path fill="black" d="M496.816 61.1295C496.134 58.6657 495.413 56.2398 494.731 54.989C490.183 59.7271 482.639 63.4038 475.817 63.4038C457.433 63.4038 442.574 49.2274 442.574 31.905C442.574 14.5825 457.433 0.595703 475.817 0.595703C482.639 0.595703 490.183 3.93132 494.542 8.82102C495.413 7.41855 496.134 4.95474 496.816 2.86999H500.151V26.8258H496.664C493.859 13.8624 486.506 6.01608 475.855 6.01608C460.124 6.01608 455.917 20.7231 455.917 31.905C455.917 43.0869 460.124 57.7939 475.855 57.7939C486.544 57.7939 493.897 49.9097 496.664 36.9842H500.151V61.1295H496.816Z"></path>
<path fill="black" d="M532.524 48.0145C529.188 55.0269 529.188 57.8318 540.029 57.8318V61.1674H512.207V57.8318C520.963 57.8318 522.517 55.5575 526.914 45.9297L548.254 0.595703H551.4L572.589 45.9297C576.948 55.368 578.73 57.8318 586.576 57.8318V61.1674H552.803V57.8318C562.772 57.8318 563.833 55.0269 560.498 48.0145L557.882 42.253H535.139L532.524 48.0145ZM546.511 18.2593L537.755 36.9842H555.267L546.511 18.2593Z"></path>
<path fill="black" d="M687.553 61.1295V57.7939C697.371 57.7939 698.925 55.5196 698.925 43.0868V17.5391L677.584 63.3658H674.59L653.401 17.8802V43.0868C653.401 55.5196 654.993 57.7939 664.773 57.7939V61.1295H636.609V57.7939C646.389 57.7939 647.981 55.5196 647.981 43.0868V20.6851C647.981 8.2524 646.389 6.16765 636.609 6.16765V2.83203H658.139L678.949 47.4459L699.759 2.83203H720.947V6.16765C711.168 6.16765 709.576 8.2524 709.576 20.6851V43.0868C709.576 55.5196 711.168 57.7939 720.947 57.7939V61.1295H687.515H687.553Z"></path>
<path fill="black" d="M772.232 63.4038C752.977 63.4038 737.246 49.2274 737.246 31.905C737.246 14.5825 752.977 0.595703 772.232 0.595703C791.488 0.595703 807.218 14.7721 807.218 31.905C807.218 49.0379 791.488 63.4038 772.232 63.4038ZM772.232 6.01608C756.123 6.01608 750.551 20.5336 750.551 31.905C750.551 43.2764 756.161 57.7939 772.232 57.7939C788.304 57.7939 794.103 43.428 794.103 31.905C794.103 20.382 788.493 6.01608 772.232 6.01608Z"></path>
<path fill="black" d="M884.774 20.7232V63.2523H881.097L840.311 19.8514V43.1249C840.311 55.5577 841.903 57.8319 851.683 57.8319V61.1676H823.52V57.8319C833.299 57.8319 834.891 55.5577 834.891 43.1249V20.7232C834.891 8.29049 833.299 6.20573 823.52 6.20573V2.87012H840.842L879.353 43.6556V20.7232C879.353 8.29049 877.761 6.20573 867.982 6.20573V2.87012H896.145V6.20573C886.328 6.20573 884.774 8.29049 884.774 20.7232Z"></path>
<path fill="black" d="M923.966 8.13905C911.382 8.13905 909.448 10.2238 908.046 16.0232L907.174 19.3588H904.18L905.582 2.9082H969.982L971.195 19.3588H968.39L967.518 16.0232C965.926 10.2617 964.183 8.13905 951.599 8.13905H943.714V43.1251C943.714 55.5578 945.306 57.8321 955.086 57.8321V61.1677H920.251V57.8321C929.879 57.8321 931.623 55.5578 931.623 43.1251V8.13905H923.928H923.966Z"></path>
<path fill="black" d="M980.48 61.1295V57.7939C990.26 57.7939 991.852 55.5196 991.852 43.0868V20.6851C991.852 8.2524 990.26 6.16765 980.48 6.16765V2.83203H1015.31V6.16765C1005.5 6.16765 1003.94 8.2524 1003.94 20.6851V43.0868C1003.94 55.5196 1005.54 57.7939 1015.31 57.7939V61.1295H980.48Z"></path>
<path fill="black" d="M1091.96 20.7232V63.2523H1088.28L1047.49 19.8514V43.1249C1047.49 55.5577 1049.09 57.8319 1058.87 57.8319V61.1676H1030.7V57.8319C1040.48 57.8319 1042.07 55.5577 1042.07 43.1249V20.7232C1042.07 8.29049 1040.48 6.20573 1030.7 6.20573V2.87012H1048.03L1086.54 43.6556V20.7232C1086.54 8.29049 1084.94 6.20573 1075.17 6.20573V2.87012H1103.33V6.20573C1093.51 6.20573 1091.96 8.29049 1091.96 20.7232Z"></path>
<path fill="black" d="M1117.16 61.1295V57.7939C1126.94 57.7939 1128.54 55.5196 1128.54 43.0868V20.6851C1128.54 8.2524 1126.94 6.16765 1117.16 6.16765V2.83203H1152V6.16765C1142.18 6.16765 1140.63 8.2524 1140.63 20.6851V43.0868C1140.63 55.5196 1142.22 57.7939 1152 57.7939V61.1295H1117.16Z"></path>
</g>
<defs>
<clipPath id="clip0_2965_13370">
<rect transform="translate(0 0.595703)" fill="white" height="62.8081" width="1152"></rect>
</clipPath>
</defs>
</svg>
